HIERARCHY
ROOT Hip
{
  OFFSET 0.0 0.0 0.0
  CHANNELS 6 Xposition Yposition Zposition Xrotation Yrotation Zrotation
  JOINT LowerSpine
  {
    OFFSET 0.0 0.061367 -0.03653
    CHANNELS 3 Xrotation Yrotation Zrotation
    JOINT MiddleSpine
    {
      OFFSET 0.0 0.056002 0.002633
      CHANNELS 3 Xrotation Yrotation Zrotation
      JOINT Chest
      {
        OFFSET 0.0 0.069296 -0.013882
        CHANNELS 3 Xrotation Yrotation Zrotation
        JOINT Neck
        {
          OFFSET 0.0 0.156156 -0.002923
          CHANNELS 3 Xrotation Yrotation Zrotation
          JOINT Head
          {
            OFFSET 0.0 0.088183 0.023986
            CHANNELS 3 Xrotation Yrotation Zrotation
            End Site
            {
              OFFSET 1e-06 0.123215 0.003678
            }
          }
        }
        JOINT LClavicle
        {
          OFFSET 0.014189 0.150698 0.046467
          CHANNELS 3 Xrotation Yrotation Zrotation
          JOINT LShoulder
          {
            OFFSET 0.082893 0.021616 -0.034976
            CHANNELS 3 Xrotation Yrotation Zrotation
            JOINT LForearm
            {
              OFFSET 0.195645 -0.000695 -0.001695
              CHANNELS 3 Xrotation Yrotation Zrotation
              JOINT LHand
              {
                OFFSET 0.163209 0.000474 -0.000977
                CHANNELS 3 Xrotation Yrotation Zrotation
                End Site
                {
                  OFFSET 0.0 0.006864 0.0
                }
              }
            }
          }
        }
        JOINT RClavicle
        {
          OFFSET -0.014189 0.150698 0.046467
          CHANNELS 3 Xrotation Yrotation Zrotation
          JOINT RShoulder
          {
            OFFSET -0.082908 0.021619 -0.034982
            CHANNELS 3 Xrotation Yrotation Zrotation
            JOINT RForearm
            {
              OFFSET -0.195645 -0.000695 -0.001695
              CHANNELS 3 Xrotation Yrotation Zrotation
              JOINT RHand
              {
                OFFSET -0.163209 0.000474 -0.000977
                CHANNELS 3 Xrotation Yrotation Zrotation
                End Site
                {
                  OFFSET 0.0 0.006864 0.0
                }
              }
            }
          }
        }
      }
    }
  }
  JOINT RThigh
  {
    OFFSET -0.072558 0.02774 -0.005953
    CHANNELS 3 Xrotation Yrotation Zrotation
    JOINT RShin
    {
      OFFSET -0.005253 -0.285537 0.0
      CHANNELS 3 Xrotation Yrotation Zrotation
      JOINT RFoot
      {
        OFFSET 0.0 -0.28038 0.0
        CHANNELS 3 Xrotation Yrotation Zrotation
        JOINT RToe
        {
          OFFSET 0.0 -0.030816 0.064441
          CHANNELS 3 Xrotation Yrotation Zrotation
          End Site
          {
            OFFSET 0.0 0.0 0.043231
          }
        }
      }
    }
  }
  JOINT LThigh
  {
    OFFSET 0.072557 0.027741 -0.005953
    CHANNELS 3 Xrotation Yrotation Zrotation
    JOINT LShin
    {
      OFFSET 0.005253 -0.285539 0.0
      CHANNELS 3 Xrotation Yrotation Zrotation
      JOINT LFoot
      {
        OFFSET 0.0 -0.28038 0.0
        CHANNELS 3 Xrotation Yrotation Zrotation
        JOINT LToe
        {
          OFFSET 0.0 -0.030816 0.064441
          CHANNELS 3 Xrotation Yrotation Zrotation
          End Site
          {
            OFFSET 0.0 0.0 0.043231
          }
        }
      }
    }
  }
}
MOTION
Frames: 6
Frame Time: 0.03333333333333333
-0.058569 0.510918 -0.18927 18.77994 7.175429 2.29367 2.148536 -0.403879 0.039839 -0.731304 0.964593 -0.28984 -6.715765 1.364124 -4.446349 1.780113 0.564741 0.155277 0.035344 -0.220096 -0.027244 -1.107664 -1.49459 -5.658136 14.982848 -24.263878 -43.90913 12.245995 -75.482796 -1.260918 0.056255 0.129891 -0.07302 -1.619813 0.241766 10.357143 -1.070116 44.707611 64.012497 7.526234 41.506157 0.63237 -0.103268 -0.088523 -0.01081 -58.657406 -1.332801 -2.752847 45.757404 -1.99171 3.076926 -4.696875 -0.575896 -0.716475 -0.159737 0.163345 0.093442 -50.987339 10.543983 12.508611 39.442551 11.014994 -12.640375 -2.778383 -0.388011 -0.179096 0.026781 -0.069739 -0.005662 
-0.053732 0.512563 -0.186379 16.078268 6.552588 2.476823 2.305256 -0.433273 0.060226 -0.734798 0.981077 -0.183496 -6.605299 1.65307 -4.160608 1.921881 0.578084 0.208676 0.034348 -0.24028 -0.027277 -1.273241 -1.79197 -5.796112 14.365047 -23.407619 -45.655766 12.368594 -75.590912 -0.656621 0.056341 0.129133 -0.072855 -1.832585 0.522408 10.219206 -0.630314 43.014153 64.264595 7.1751 43.936352 0.878481 -0.132644 -0.07282 -0.013069 -54.055683 -1.696486 -2.93001 42.565258 -1.941374 3.039629 -4.697517 -0.550061 -0.733832 -0.161644 0.158059 0.098394 -46.317764 11.058533 11.795158 35.455765 10.501646 -12.08294 -2.926876 -0.372578 -0.129702 0.028336 -0.070596 -0.005299 
-0.049253 0.513998 -0.182972 14.296662 5.859338 2.607865 2.430782 -0.449178 0.064182 -0.737253 1.015096 -0.100354 -6.51495 1.943476 -3.814725 2.013601 0.583626 0.244752 0.033525 -0.244559 -0.02781 -1.368272 -1.964099 -5.936924 13.627096 -22.824505 -47.251202 11.955622 -75.285217 -0.229345 0.056128 0.125281 -0.070944 -1.972356 0.716356 10.156138 -0.320458 41.325485 64.458862 6.570319 45.790375 1.053234 -0.14239 -0.064935 -0.013661 -50.709785 -2.005358 -3.074771 40.349571 -1.940275 3.057346 -4.826546 -0.549708 -0.743798 -0.157857 0.154 0.099867 -42.851185 11.178706 11.016243 32.364532 9.973798 -11.520216 -3.063514 -0.346882 -0.086146 0.028783 -0.065822 -0.00254 
-0.045332 0.515184 -0.179731 13.163456 5.027708 2.681641 2.553874 -0.461676 0.036116 -0.755788 1.059088 -0.031199 -6.664337 2.240996 -3.342327 2.087863 0.584171 0.268568 0.032759 -0.234492 -0.027589 -1.42105 -2.029918 -6.055292 12.728877 -22.472555 -48.791924 11.326627 -74.262573 0.268994 0.055243 0.119233 -0.068833 -2.033856 0.824741 10.094563 -0.38755 39.790298 64.854706 5.839191 46.879864 1.071909 -0.135939 -0.063583 -0.012946 -48.487297 -2.329349 -3.220348 39.045517 -1.994014 3.207329 -4.979806 -0.568046 -0.745418 -0.147739 0.151688 0.097238 -40.395206 10.956891 10.193425 30.067846 9.402132 -10.917792 -3.211747 -0.306261 -0.054802 0.027518 -0.058479 0.001263 
-0.041694 0.516542 -0.17535 12.292456 4.052302 2.753326 2.675058 -0.476057 -0.015148 -0.790056 1.113974 0.033 -6.945527 2.550609 -2.705546 2.170746 0.58247 0.276654 0.033 -0.206008 -0.026767 -1.432192 -2.017704 -6.146518 11.722055 -22.187952 -50.215359 10.484408 -72.930954 0.730302 0.05119 0.109241 -0.061732 -2.028594 0.87689 10.04742 -0.633469 38.303707 65.236275 4.955283 47.62043 1.078047 -0.111044 -0.064693 -0.01014 -46.618263 -2.673018 -3.383424 38.29192 -2.066991 3.44459 -5.155363 -0.596541 -0.732499 -0.133072 0.14813 0.087623 -38.13007 10.579527 9.209842 27.893396 8.841533 -10.249207 -3.332321 -0.269364 -0.043134 0.022688 -0.045782 0.00869 
-0.039017 0.514427 -0.183064 12.360966 3.490701 2.742755 2.728292 -0.489586 -0.051882 -0.870455 1.116323 0.076895 -7.520724 2.642562 -2.280108 2.198282 0.580333 0.282586 0.032853 -0.185949 -0.025658 -1.431354 -1.985721 -6.214558 11.155737 -22.101885 -51.107994 9.93744 -71.388298 1.057488 0.048546 0.101877 -0.057508 -2.005068 0.935247 10.003643 -0.660813 37.309437 65.554756 4.536376 47.561966 1.065002 -0.093987 -0.065978 -0.007969 -46.965271 -2.86919 -3.292058 38.795803 -2.133791 3.587457 -5.272971 -0.626304 -0.722856 -0.123154 0.145874 0.079646 -38.16032 10.152624 8.658119 27.380339 8.527293 -9.828748 -3.398332 -0.237316 -0.031439 0.01844 -0.038087 0.012813 
